<?xml version="1.0" encoding="utf-8"?><svg xml:space="preserve" viewBox="0 0 100 100" y="0" x="0" xmlns="http://www.w3.org/2000/svg" id="圖層_1" version="1.1" width="200px" height="200px" xmlns:xlink="http://www.w3.org/1999/xlink" style="width:100%;height:100%;background-size:initial;background-repeat-y:initial;background-repeat-x:initial;background-position-y:initial;background-position-x:initial;background-origin:initial;background-color:initial;background-clip:initial;background-attachment:initial;animation-play-state:paused" ><g class="ldl-scale" style="transform-origin:50% 50%;transform:rotate(0deg) scale(0.8, 0.8);animation-play-state:paused" ><path fill="#333" d="M86.735 34.161l-9.665 2.895a30.069 30.069 0 0 0-6.402-8.789l5.74-8.298a40.126 40.126 0 0 0-6.001-4.371l-6.115 8.018a29.8 29.8 0 0 0-10.346-3.35l-.234-10.089C52.489 10.065 51.252 10 50 10s-2.489.065-3.712.178l-.234 10.089a29.8 29.8 0 0 0-10.346 3.35l-6.115-8.018a40.126 40.126 0 0 0-6.001 4.371l5.74 8.298a30.082 30.082 0 0 0-6.402 8.789l-9.665-2.895a39.725 39.725 0 0 0-2.287 7.063l9.523 3.34C20.177 46.328 20 48.143 20 50s.177 3.672.501 5.436l-9.523 3.34a39.752 39.752 0 0 0 2.287 7.063l9.665-2.895a30.069 30.069 0 0 0 6.402 8.789l-5.74 8.298a40.126 40.126 0 0 0 6.001 4.371l6.115-8.018a29.8 29.8 0 0 0 10.346 3.35l.234 10.089c1.223.112 2.46.177 3.712.177s2.489-.065 3.712-.178l.234-10.089a29.8 29.8 0 0 0 10.346-3.35l6.115 8.018a40.126 40.126 0 0 0 6.001-4.371l-5.74-8.298a30.082 30.082 0 0 0 6.402-8.789l9.665 2.895a39.725 39.725 0 0 0 2.287-7.063l-9.523-3.34C79.823 53.672 80 51.857 80 50s-.177-3.672-.501-5.436l9.523-3.34a39.725 39.725 0 0 0-2.287-7.063zM50 65c-8.284 0-15-6.716-15-15 0-8.284 6.716-15 15-15s15 6.716 15 15c0 8.284-6.716 15-15 15z" style="fill:rgb(232, 250, 255);animation-play-state:paused" ></path>
<metadata xmlns:d="https://loading.io/stock/" style="animation-play-state:paused" ><d:name style="animation-play-state:paused" >gear</d:name>


<d:tags style="animation-play-state:paused" >setting,profile,customize,wheel,pinion,gear</d:tags>


<d:license style="animation-play-state:paused" >by</d:license>


<d:slug style="animation-play-state:paused" >q2mue9</d:slug></metadata></g><!-- generated by https://loading.io/ --></svg>