<?xml version="1.0" encoding="utf-8"?><svg xml:space="preserve" viewBox="0 0 100 100" y="0" x="0" xmlns="http://www.w3.org/2000/svg" id="圖層_1" version="1.1" width="200px" height="200px" xmlns:xlink="http://www.w3.org/1999/xlink" style="width:100%;height:100%;background-size:initial;background-repeat-y:initial;background-repeat-x:initial;background-position-y:initial;background-position-x:initial;background-origin:initial;background-color:initial;background-clip:initial;background-attachment:initial;animation-play-state:paused" ><g class="ldl-scale" style="transform-origin:50% 50%;transform:rotate(0deg) scale(0.8, 0.8);animation-play-state:paused" ><path fill="#333" d="M89.916 52.481c.05-.821.084-1.647.084-2.481s-.034-1.66-.084-2.481l-5.017-.048a34.893 34.893 0 0 0-1.68-8.493l4.614-1.963a39.581 39.581 0 0 0-1.895-4.587l-4.656 1.877a35.017 35.017 0 0 0-4.816-7.194l3.512-3.58a40.207 40.207 0 0 0-3.509-3.509l-3.58 3.512a35.058 35.058 0 0 0-7.194-4.816l1.877-4.656a39.758 39.758 0 0 0-4.587-1.895l-1.963 4.614a34.78 34.78 0 0 0-8.493-1.68l-.048-5.017C51.66 10.034 50.834 10 50 10s-1.66.034-2.481.084l-.048 5.017a34.893 34.893 0 0 0-8.493 1.68l-1.963-4.614a39.654 39.654 0 0 0-4.587 1.895l1.877 4.656a35.017 35.017 0 0 0-7.194 4.816l-3.58-3.512a40.207 40.207 0 0 0-3.509 3.509l3.512 3.58a35.017 35.017 0 0 0-4.816 7.194l-4.656-1.877a39.581 39.581 0 0 0-1.895 4.587l4.614 1.963a34.78 34.78 0 0 0-1.68 8.493l-5.017.048C10.034 48.34 10 49.166 10 50s.034 1.66.084 2.481l5.017.048a34.893 34.893 0 0 0 1.68 8.493l-4.614 1.963a39.581 39.581 0 0 0 1.895 4.587l4.656-1.877a35.017 35.017 0 0 0 4.816 7.194l-3.512 3.58a40.207 40.207 0 0 0 3.509 3.509l3.58-3.512a35.017 35.017 0 0 0 7.194 4.816l-1.877 4.656a39.581 39.581 0 0 0 4.587 1.895l1.963-4.614a34.78 34.78 0 0 0 8.493 1.68l.048 5.017c.821.05 1.647.084 2.481.084s1.66-.034 2.481-.084l.048-5.017a34.893 34.893 0 0 0 8.493-1.68l1.963 4.614a39.654 39.654 0 0 0 4.587-1.895l-1.877-4.656a35.017 35.017 0 0 0 7.194-4.816l3.58 3.512a40.207 40.207 0 0 0 3.509-3.509l-3.512-3.58a35.017 35.017 0 0 0 4.816-7.194l4.656 1.877a39.581 39.581 0 0 0 1.895-4.587l-4.614-1.963a34.78 34.78 0 0 0 1.68-8.493l5.017-.048zM50 77.5c-15.188 0-27.5-12.312-27.5-27.5S34.812 22.5 50 22.5 77.5 34.812 77.5 50 65.188 77.5 50 77.5z" style="fill:rgb(112, 138, 220);animation-play-state:paused" ></path>
<metadata xmlns:d="https://loading.io/stock/" style="animation-play-state:paused" ><d:name style="animation-play-state:paused" >gear</d:name>


<d:tags style="animation-play-state:paused" >setting,profile,customize,wheel,pinion,gear</d:tags>


<d:license style="animation-play-state:paused" >by</d:license>


<d:slug style="animation-play-state:paused" >nymnwy</d:slug></metadata></g><!-- generated by https://loading.io/ --></svg>