<?xml version="1.0" encoding="utf-8"?><svg xml:space="preserve" viewBox="0 0 100 100" y="0" x="0" xmlns="http://www.w3.org/2000/svg" id="圖層_1" version="1.1" width="200px" height="200px" xmlns:xlink="http://www.w3.org/1999/xlink" style="width:100%;height:100%;background-size:initial;background-repeat-y:initial;background-repeat-x:initial;background-position-y:initial;background-position-x:initial;background-origin:initial;background-color:initial;background-clip:initial;background-attachment:initial;animation-play-state:paused" ><g class="ldl-scale" style="transform-origin:50% 50%;transform:rotate(0deg) scale(0.8, 0.8);animation-play-state:paused" ><g style="animation-play-state:paused" ><path fill="#77a4bd" d="M40.9 46.2h-.5v34.1c0 .6 0 1.2.1 1.7.7 6.5 5.1 9.1 9.6 9.1V46.2h-9.2z" style="fill:rgb(112, 138, 220);animation-play-state:paused" ></path>
<path fill="#a0c8d7" d="M50 46.2v44.9c4.4 0 8.9-2.6 9.6-9.1.1-.6.1-1.1.1-1.7V46.2H50z" style="fill:rgb(66, 4, 87);animation-play-state:paused" ></path></g>
<g style="animation-play-state:paused" ><path fill="#333" d="M40.4 82c-.1-.6-.1-1.1-.1-1.7V16.2h-2.5c-.2 0-.5 0-.7-.1-1.5-.4-2.6-1.9-2.6-3.8v-.1c0-2.2 1.5-3.9 3.3-3.9H50V5H37.8c-3.6 0-6.5 3.2-6.5 7.1v.1c0 3.7 2.6 6.7 5.9 7.1v63.3c0 .6.1 1.2.1 1.8.9 7 6.8 10.6 12.7 10.6v-3.9c-4.4 0-8.9-2.5-9.6-9.1z" style="fill:rgb(232, 250, 255);animation-play-state:paused" ></path>
<path fill="#666" d="M62.7 84.5c.1-.6.1-1.2.1-1.8V19.3c3.3-.3 5.9-3.4 5.9-7.1v-.1c0-3.9-2.9-7.1-6.5-7.1H50v3.2H62.3c1.8 0 3.3 1.8 3.3 3.9v.1c0 1.9-1.1 3.4-2.6 3.8-.2.1-.4.1-.7.1h-2.5v64.1c0 .6 0 1.2-.1 1.7-.7 6.5-5.1 9.1-9.6 9.1v4c5.8 0 11.7-3.6 12.6-10.5z" style="fill:rgb(176, 214, 249);animation-play-state:paused" ></path></g>
<g style="animation-play-state:paused" ><path fill="#f8b26a" d="M50 43.1h-6.2c-1.2 0-2.1-1-2.1-2.1s1-2.1 2.1-2.1H50c1.2 0 2.1 1 2.1 2.1s-.9 2.1-2.1 2.1z" id="XMLID_224_" style="fill:rgb(90, 63, 170);animation-play-state:paused" ></path>
<path fill="#f8b26a" d="M50 52.4h-6.2c-1.2 0-2.1-1-2.1-2.1s1-2.1 2.1-2.1H50c1.2 0 2.1 1 2.1 2.1s-.9 2.1-2.1 2.1z" id="XMLID_1_" style="fill:rgb(90, 63, 170);animation-play-state:paused" ></path>
<path fill="#f8b26a" d="M50 61.7h-6.2c-1.2 0-2.1-1-2.1-2.1s1-2.1 2.1-2.1H50c1.2 0 2.1 1 2.1 2.1s-.9 2.1-2.1 2.1z" id="XMLID_2_" style="fill:rgb(90, 63, 170);animation-play-state:paused" ></path>
<path fill="#f8b26a" d="M50 71h-6.2c-1.2 0-2.1-1-2.1-2.1 0-1.2 1-2.1 2.1-2.1H50c1.2 0 2.1 1 2.1 2.1S51.2 71 50 71z" id="XMLID_3_" style="fill:rgb(90, 63, 170);animation-play-state:paused" ></path>
<path fill="#f8b26a" d="M50 80.3h-6.2c-1.2 0-2.1-1-2.1-2.1 0-1.2 1-2.1 2.1-2.1H50c1.2 0 2.1 1 2.1 2.1s-.9 2.1-2.1 2.1z" id="XMLID_4_" style="fill:rgb(90, 63, 170);animation-play-state:paused" ></path></g>
<metadata xmlns:d="https://loading.io/stock/" style="animation-play-state:paused" ><d:name style="animation-play-state:paused" >test tube</d:name>
<d:tags style="animation-play-state:paused" >experiment,science,pipet,flask,chemistry,laboratory,lab,test tube,web application</d:tags>
<d:license style="animation-play-state:paused" >pro</d:license>
<d:slug style="animation-play-state:paused" >q9hxzt</d:slug></metadata></g><!-- generated by https://loading.io/ --></svg>